<?xml version="1.0" standalone="no"?>
<!DOCTYPE svg PUBLIC "-//W3C//DTD SVG 20010904//EN"
 "http://www.w3.org/TR/2001/REC-SVG-20010904/DTD/svg10.dtd">
<svg version="1.0" xmlns="http://www.w3.org/2000/svg"
 width="400.000000pt" height="400.000000pt" viewBox="0 0 400.000000 400.000000"
 preserveAspectRatio="xMidYMid meet">
<metadata>
Created by potrace 1.14, written by Peter Selinger 2001-2017
</metadata>
<g transform="translate(0.000000,400.000000) scale(0.100000,-0.100000)"
fill="#000000" stroke="none">
<path d="M1800 3969 c-415 -47 -839 -240 -1129 -514 -268 -253 -431 -504 -540
-831 -77 -230 -95 -352 -95 -624 0 -267 17 -384 89 -606 103 -317 262 -572
501 -805 248 -240 527 -401 859 -493 396 -110 840 -93 1228 49 130 47 128 46
120 58 -3 6 -1 7 5 3 15 -9 175 72 167 84 -4 6 1 7 11 3 13 -5 15 -3 9 7 -5 9
-4 11 3 6 15 -9 55 18 44 29 -4 5 -2 5 5 1 14 -8 65 22 58 34 -3 5 0 12 6 16
8 4 9 3 5 -4 -15 -25 12 -9 89 52 44 35 79 68 78 74 -2 6 3 9 11 6 13 -5 246
229 246 248 0 5 -4 6 -10 3 -6 -3 -7 1 -3 10 4 11 8 13 13 5 8 -13 66 60 141
180 116 186 214 436 260 660 22 104 24 141 24 375 0 279 -8 348 -61 540 -32
118 -94 276 -105 269 -5 -3 -6 1 -4 9 9 22 -127 270 -137 251 -3 -5 -3 -3 -1
4 4 17 -86 144 -97 137 -4 -2 -16 5 -26 18 l-19 22 23 -19 c45 -39 20 1 -49
77 -39 42 -76 74 -81 70 -7 -3 -8 -1 -4 6 8 12 -51 68 -67 63 -5 -1 -6 2 -3 7
9 14 -142 137 -264 216 -185 121 -436 226 -641 270 -191 41 -471 55 -659 34z
m125 -69 c4 -6 -17 -9 -57 -8 l-63 1 50 7 c28 4 53 8 57 8 4 1 10 -2 13 -8z
m118 -7 c-24 -2 -43 -8 -43 -14 0 -5 -8 -9 -17 -9 -15 0 -14 2 3 15 10 8 37
14 59 13 l40 -1 -42 -4z m-290 -10 c-7 -2 -21 -2 -30 0 -10 3 -4 5 12 5 17 0
24 -2 18 -5z m514 1 c-3 -3 -12 -4 -19 -1 -8 3 -5 6 6 6 11 1 17 -2 13 -5z
m-577 -19 c-14 -16 -25 -21 -16 -6 4 5 0 12 -6 14 -7 3 -2 6 11 6 20 1 21 -1
11 -14z m-57 -2 c-7 -2 -21 -2 -30 0 -10 3 -4 5 12 5 17 0 24 -2 18 -5z m-111
-26 c-16 -8 -26 -7 -35 2 -10 11 -7 12 12 6 16 -5 21 -4 17 4 -5 7 -1 8 10 4
16 -6 15 -8 -4 -16z m55 17 c-3 -3 -12 -4 -19 -1 -8 3 -5 6 6 6 11 1 17 -2 13
-5z m198 -4 c13 -6 15 -9 5 -9 -8 0 -22 4 -30 9 -18 12 -2 12 25 0z m222 -6
c-3 -3 -12 -4 -19 -1 -8 3 -5 6 6 6 11 1 17 -2 13 -5z m490 0 c-3 -3 -12 -4
-19 -1 -8 3 -5 6 6 6 11 1 17 -2 13 -5z m-1027 -24 c12 -7 8 -10 -15 -10 -22
0 -26 -3 -15 -10 8 -5 12 -11 9 -15 -7 -7 -69 5 -69 14 0 5 38 22 70 29 3 1
12 -3 20 -8z m-79 -38 l35 -18 -28 -24 c-15 -13 -28 -32 -28 -42 0 -10 -6 -18
-14 -18 -8 0 -17 -9 -21 -19 -3 -11 -15 -23 -26 -26 -10 -4 -19 -13 -19 -21 0
-8 -6 -14 -14 -14 -8 0 -17 -9 -21 -19 -3 -11 -15 -23 -26 -26 -10 -4 -19 -13
-19 -21 0 -8 -6 -14 -14 -14 -8 0 -17 -9 -21 -19 -3 -11 -15 -23 -26 -26 -10
-4 -19 -13 -19 -21 0 -8 -6 -14 -14 -14 -8 0 -17 -9 -21 -19 -3 -11 -15 -23
-26 -26 -10 -4 -19 -13 -19 -21 0 -8 -6 -14 -14 -14 -8 0 -17 -9 -21 -19 -3
-11 -15 -23 -26 -26 -10 -4 -19 -13 -19 -21 0 -8 -6 -14 -14 -14 -8 0 -17 -9
-21 -19 -3 -11 -15 -23 -26 -26 -10 -4 -19 -13 -19 -21 0 -8 -6 -14 -14 -14
-8 0 -17 -9 -21 -19 -3 -11 -15 -23 -26 -26 -10 -4 -19 -13 -19 -21 0 -8 -6
-14 -14 -14 -8 0 -17 -9 -21 -19 -3 -11 -15 -23 -26 -26 -10 -4 -19 -13 -19
-21 0 -8 -6 -14 -14 -14 -8 0 -17 -9 -21 -19 -3 -11 -15 -23 -26 -26 -10 -4
-19 -13 -19 -21 0 -8 -6 -14 -14 -14 -8 0 -17 -9 -21 -19 -3 -11 -15 -23 -26
-26 -10 -4 -19 -13 -19 -21 0 -8 -6 -14 -14 -14 -8 0 -17 -9 -21 -19 -3 -11
-15 -23 -26 -26 -10 -4 -19 -13 -19 -21 0 -8 -6 -14 -14 -14 -8 0 -17 -9 -21
-19 -3 -11 -15 -23 -26 -26 -10 -4 -19 -13 -19 -21 0 -8 -6 -14 -14 -14 -8 0
-17 -9 -21 -19 -3 -11 -15 -23 -26 -26 -10 -4 -19 -13 -19 -21 0 -8 -10 -14
-25 -14 -14 0 -25 -4 -25 -10 0 -5 -7 -10 -15 -10 -10 0 -15 -11 -16 -32 0
-18 -3 -27 -6 -20 -8 20 -25 13 -18 -8 7 -21 -10 -28 -18 -7 -3 6 -6 -1 -6
-18 -2 -37 -21 -72 -21 -38 0 26 55 206 76 246 8 16 14 35 14 43 0 8 4 14 8
14 11 0 44 69 38 79 -3 4 0 13 6 21 8 12 9 12 4 -3 -3 -11 -2 -16 4 -12 6 3
10 14 10 24 0 10 7 24 15 31 8 6 14 15 13 18 -1 4 4 18 11 32 13 23 15 24 22
5 6 -16 8 -13 8 14 1 20 11 48 26 67 14 18 25 35 25 39 0 6 90 117 119 147 9
9 27 30 40 47 13 17 29 31 36 31 7 0 15 7 19 15 3 8 12 15 21 15 8 0 15 5 15
11 0 5 -6 7 -12 4 -7 -3 -3 1 9 10 12 9 34 28 48 41 14 13 30 24 36 24 5 0 9
6 9 13 1 6 21 25 45 40 25 16 45 33 45 38 0 5 7 9 15 9 8 0 15 5 15 10 0 6 6
10 14 10 8 0 16 3 18 8 4 9 102 72 113 72 5 0 16 7 26 16 16 15 17 14 13 -8
-5 -22 -5 -22 10 3 14 24 36 36 196 107 25 11 45 21 45 21 1 1 17 -7 36 -17z
m1959 -767 c0 -44 -1 -45 -31 -45 -37 0 -97 -32 -121 -64 -12 -16 -26 -103
-52 -322 -20 -164 -43 -353 -51 -419 -15 -124 -59 -486 -71 -588 l-6 -57 -981
2 -980 3 -101 397 c-55 218 -104 394 -108 392 -4 -3 -5 2 -2 10 3 8 -4 50 -15
93 -11 43 -34 137 -52 208 -18 72 -35 132 -38 135 -3 3 -8 21 -9 40 -4 35 -20
65 -30 55 -3 -2 0 -11 7 -18 9 -11 8 -17 -4 -27 -9 -7 -18 -10 -22 -6 -3 3 -1
6 5 6 7 0 12 7 12 15 0 21 -9 19 -31 -7 -30 -37 -22 -14 10 25 15 20 30 34 33
32 4 -4 797 -6 2085 -5 l293 0 13 33 c19 44 63 94 101 114 25 14 108 39 139
42 4 1 7 -19 7 -44z m-2270 -59 c0 -2 -7 -9 -15 -16 -12 -10 -15 -10 -15 4 0
9 7 16 15 16 8 0 15 -2 15 -4z m-287 -23 c-13 -2 -33 -2 -45 0 -13 2 -3 4 22
4 25 0 35 -2 23 -4z m-120 -60 c-7 -2 -13 -12 -13 -20 0 -9 -3 -14 -6 -10 -10
10 4 37 18 36 10 0 10 -2 1 -6z m68 -205 c-9 -31 -9 -31 -10 -6 -1 30 11 67
16 51 2 -6 0 -26 -6 -45z m28 -48 l-1 -25 -8 25 c-4 14 -8 32 -9 40 -1 13 0
13 9 0 5 -8 9 -26 9 -40z m8 -52 c-3 -8 -6 -5 -6 6 -1 11 2 17 5 13 3 -3 4
-12 1 -19z m-27 3 c0 -6 -4 -13 -10 -16 -5 -3 -10 1 -10 9 0 9 5 16 10 16 6 0
10 -4 10 -9z m-533 -83 c-3 -8 -6 -5 -6 6 -1 11 2 17 5 13 3 -3 4 -12 1 -19z
m30 0 c-3 -8 -6 -5 -6 6 -1 11 2 17 5 13 3 -3 4 -12 1 -19z m-87 -75 c-11 -17
-11 -17 -6 0 3 10 7 26 7 35 1 15 2 15 6 0 2 -10 -1 -25 -7 -35z m-13 -85 c-3
-8 -6 -5 -6 6 -1 11 2 17 5 13 3 -3 4 -12 1 -19z m20 -40 c-3 -7 -5 -2 -5 12
0 14 2 19 5 13 2 -7 2 -19 0 -25z m-18 -92 c2 -60 -6 -39 -12 34 -3 41 -2 54
3 35 4 -16 8 -48 9 -69z m-20 -121 c0 -88 -3 -134 -10 -130 -6 4 -8 49 -4 118
2 62 5 120 5 130 0 9 2 17 5 17 2 0 4 -61 4 -135z m28 -87 c-2 -13 -4 -5 -4
17 -1 22 1 32 4 23 2 -10 2 -28 0 -40z m1332 -533 c87 -44 150 -160 137 -251
-22 -166 -195 -268 -344 -204 -57 25 -116 83 -139 138 -20 48 -19 138 2 187
26 65 98 130 159 146 44 12 150 3 185 -16z m1288 12 c59 -17 126 -76 153 -133
47 -102 22 -216 -67 -294 -102 -89 -246 -79 -341 24 -53 57 -64 85 -65 162 -2
172 155 291 320 241z"/>
<path d="M1345 3780 c-3 -5 -1 -10 4 -10 6 0 11 5 11 10 0 6 -2 10 -4 10 -3 0
-8 -4 -11 -10z"/>
<path d="M1213 3723 c9 -2 23 -2 30 0 6 3 -1 5 -18 5 -16 0 -22 -2 -12 -5z"/>
<path d="M1200 3700 c0 -6 7 -10 15 -10 8 0 15 2 15 4 0 2 -7 6 -15 10 -8 3
-15 1 -15 -4z"/>
<path d="M1148 3683 c6 -2 18 -2 25 0 6 3 1 5 -13 5 -14 0 -19 -2 -12 -5z"/>
<path d="M1040 3630 c0 -5 4 -10 9 -10 6 0 13 5 16 10 3 6 -1 10 -9 10 -9 0
-16 -4 -16 -10z"/>
<path d="M1005 3620 c-3 -5 1 -10 10 -10 9 0 13 5 10 10 -3 6 -8 10 -10 10 -2
0 -7 -4 -10 -10z"/>
<path d="M845 3480 c-3 -5 1 -10 10 -10 9 0 13 5 10 10 -3 6 -8 10 -10 10 -2
0 -7 -4 -10 -10z"/>
<path d="M775 3380 c3 -5 8 -10 11 -10 2 0 4 5 4 10 0 6 -5 10 -11 10 -5 0 -7
-4 -4 -10z"/>
<path d="M610 3220 c0 -5 5 -10 10 -10 6 0 10 5 10 10 0 6 -4 10 -10 10 -5 0
-10 -4 -10 -10z"/>
<path d="M512 3150 c-8 -13 -8 -20 -2 -20 6 0 13 7 17 15 9 24 -1 27 -15 5z"/>
<path d="M465 3118 c4 -11 2 -18 -4 -18 -6 0 -11 -4 -11 -10 0 -16 17 -11 24
7 4 9 2 21 -4 27 -8 8 -9 6 -5 -6z"/>
<path d="M440 3062 c0 -12 19 -26 26 -19 2 2 -2 10 -11 17 -9 8 -15 8 -15 2z"/>
<path d="M311 2834 c0 -11 3 -14 6 -6 3 7 2 16 -1 19 -3 4 -6 -2 -5 -13z"/>
<path d="M281 2764 c0 -11 3 -14 6 -6 3 7 2 16 -1 19 -3 4 -6 -2 -5 -13z"/>
<path d="M221 2614 c0 -11 3 -14 6 -6 3 7 2 16 -1 19 -3 4 -6 -2 -5 -13z"/>
<path d="M2807 2733 c3 -16 21 -86 38 -158 l31 -130 46 -3 c43 -3 47 -1 52 25
7 30 36 259 36 281 0 9 -28 12 -105 12 l-105 0 7 -27z"/>
<path d="M2435 2718 c4 -18 20 -90 37 -160 l31 -128 158 0 c121 0 159 3 159
13 0 6 -16 78 -36 160 l-36 147 -160 0 -160 0 7 -32z"/>
<path d="M860 2729 c0 -5 3 -8 8 -6 4 3 8 -11 9 -31 1 -19 7 -38 13 -42 6 -4
8 -14 4 -23 -8 -22 6 -44 17 -26 7 11 9 10 9 -3 0 -9 -5 -18 -11 -20 -7 -2 -6
-13 2 -33 7 -17 11 -34 10 -38 -1 -5 3 -26 9 -48 l11 -39 166 0 165 0 -6 23
c-3 12 -6 26 -6 30 0 5 -4 5 -10 2 -6 -3 -7 1 -4 10 7 17 -26 156 -35 150 -3
-1 -7 12 -8 30 -1 19 -6 43 -13 54 -10 20 -19 21 -170 21 -106 0 -160 -4 -160
-11z m81 -176 c13 -16 12 -17 -3 -4 -10 7 -18 15 -18 17 0 8 8 3 21 -13z m0
-66 c-10 -9 -11 -8 -5 6 3 10 9 15 12 12 3 -3 0 -11 -7 -18z"/>
<path d="M1280 2720 c0 -11 4 -20 10 -20 5 0 7 -6 5 -12 -8 -23 20 -123 34
-120 8 2 9 -2 3 -14 -11 -20 -3 -64 12 -64 8 0 8 -2 0 -8 -7 -4 -8 -15 -3 -29
8 -23 12 -23 169 -23 88 0 160 2 160 5 0 3 -9 37 -19 77 -11 40 -27 108 -36
151 l-17 77 -159 0 c-152 0 -159 -1 -159 -20z m44 -35 c3 -8 1 -15 -4 -15 -6
0 -10 7 -10 15 0 8 2 15 4 15 2 0 6 -7 10 -15z"/>
<path d="M1683 2713 c3 -16 15 -66 27 -113 12 -47 26 -102 31 -122 l10 -38
155 0 156 0 -7 36 c-5 30 -47 184 -59 219 -2 6 -4 14 -4 20 -1 18 -39 24 -175
24 l-138 1 4 -27z"/>
<path d="M2058 2723 c5 -10 12 -40 16 -67 3 -26 16 -84 28 -127 l21 -79 159 0
c147 0 159 1 154 18 -7 25 -66 263 -66 268 0 2 -72 4 -160 4 -150 0 -160 -1
-152 -17z"/>
<path d="M2895 2373 c4 -10 13 -48 21 -84 24 -116 30 -122 38 -39 4 41 9 90
13 108 5 32 5 32 -37 32 -36 0 -41 -3 -35 -17z"/>
<path d="M1755 2358 c3 -13 21 -84 39 -158 l32 -135 162 -3 163 -2 -6 22 c-3
13 -20 84 -38 158 l-33 135 -162 3 -163 2 6 -22z"/>
<path d="M2140 2375 c0 -14 69 -295 75 -304 10 -17 315 -15 315 2 0 6 -16 78
-36 160 l-36 147 -159 0 c-87 0 -159 -2 -159 -5z"/>
<path d="M2521 2368 c0 -7 17 -78 37 -158 l37 -145 163 -3 c159 -2 163 -2 157
17 -3 11 -17 66 -31 123 -14 57 -29 120 -35 141 l-10 37 -159 0 c-122 0 -160
-3 -159 -12z"/>
<path d="M1375 2338 c3 -30 64 -270 70 -276 9 -10 315 -7 315 3 0 6 -16 72
-35 148 -19 76 -35 140 -35 142 0 3 -71 5 -159 5 -158 0 -158 0 -156 -22z"/>
<path d="M969 2337 c6 -8 7 -18 3 -22 -4 -5 -1 -5 5 -1 9 5 11 -1 7 -24 -4
-20 -3 -30 5 -30 7 0 10 -4 6 -9 -3 -6 3 -14 12 -20 10 -6 13 -11 5 -11 -13 0
-7 -45 9 -65 4 -5 8 -14 8 -20 1 -5 4 -27 8 -47 l6 -38 164 0 c153 0 165 1
158 18 -3 9 -17 55 -31 102 -13 47 -32 106 -41 133 l-17 47 -159 0 c-132 0
-158 -2 -148 -13z m44 -32 c-3 -9 -8 -14 -10 -11 -3 3 -2 9 2 15 9 16 15 13 8
-4z m21 -31 c3 -8 2 -12 -4 -9 -6 3 -10 10 -10 16 0 14 7 11 14 -7z"/>
<path d="M1844 1993 c3 -10 21 -80 40 -156 19 -76 36 -140 38 -143 7 -6 306
-9 313 -3 3 4 -12 76 -33 160 l-38 154 -163 3 c-152 2 -162 1 -157 -15z"/>
<path d="M2234 1988 c3 -13 20 -85 38 -160 l32 -138 161 0 162 0 -29 123 c-16
67 -33 139 -39 160 l-10 37 -161 0 -160 0 6 -22z"/>
<path d="M1064 1982 c3 -10 21 -80 40 -156 19 -76 36 -140 39 -142 2 -2 72 -6
156 -8 108 -3 154 0 156 8 3 6 -12 79 -33 161 l-37 150 -163 3 c-154 2 -163 1
-158 -16z"/>
<path d="M1452 1983 c3 -10 20 -82 39 -160 l34 -143 162 0 c125 0 161 3 158
13 -2 6 -16 62 -30 122 -14 61 -30 127 -36 148 l-10 37 -161 0 c-148 0 -160
-1 -156 -17z"/>
<path d="M2600 1988 c0 -18 58 -250 70 -282 l10 -27 102 3 103 3 11 90 c6 50
14 120 18 158 l8 67 -161 0 c-122 0 -161 -3 -161 -12z"/>
<path d="M1295 1386 c-40 -17 -82 -67 -96 -115 -20 -68 21 -154 88 -186 109
-52 232 18 240 138 9 124 -118 213 -232 163z"/>
<path d="M2603 1375 c-46 -28 -83 -91 -83 -141 1 -49 35 -110 79 -140 76 -50
186 -26 232 50 27 44 26 137 -2 183 -44 72 -149 94 -226 48z"/>
</g>
</svg>
